<svg xmlns="http://www.w3.org/2000/svg" width="74" height="81" viewBox="0 0 74 81"><defs><mask id="fdy0b" width="2" height="2" x="-1" y="-1"><path fill="#fff" d="M5 2h64v70H5z"/><path d="M5.845 58.267c.054-13.842.029-27.684-.076-41.526C5.663 2.899 11.59-.537 23.55 6.431a3604.47 3604.47 0 0 0 36 20.697c12.041 6.83 12.053 13.682.038 20.555a3604.182 3604.182 0 0 0-35.924 20.829C11.73 75.525 5.79 72.109 5.845 58.267z"/></mask><filter id="fdy0a" width="98" height="107" x="-12" y="-15" filterUnits="userSpaceOnUse"><feOffset dy="3" in="SourceGraphic" result="FeOffset1023Out"/><feGaussianBlur in="FeOffset1023Out" result="FeGaussianBlur1024Out" stdDeviation="2.8 2.8"/></filter></defs><g><g><g filter="url(#fdy0a)"><path fill="none" d="M5.845 58.267c.054-13.842.029-27.684-.076-41.526C5.663 2.899 11.59-.537 23.55 6.431a3604.47 3604.47 0 0 0 36 20.697c12.041 6.83 12.053 13.682.038 20.555a3604.182 3604.182 0 0 0-35.924 20.829C11.73 75.525 5.79 72.109 5.845 58.267z" mask="url(&quot;#fdy0b&quot;)"/><path fill="#000001" fill-opacity=".3" d="M5.845 58.267c.054-13.842.029-27.684-.076-41.526C5.663 2.899 11.59-.537 23.55 6.431a3604.47 3604.47 0 0 0 36 20.697c12.041 6.83 12.053 13.682.038 20.555a3604.182 3604.182 0 0 0-35.924 20.829C11.73 75.525 5.79 72.109 5.845 58.267z"/></g><path fill="#3a30f8" d="M5.845 58.267c.054-13.842.029-27.684-.076-41.526C5.663 2.899 11.59-.537 23.55 6.431a3604.47 3604.47 0 0 0 36 20.697c12.041 6.83 12.053 13.682.038 20.555a3604.182 3604.182 0 0 0-35.924 20.829C11.73 75.525 5.79 72.109 5.845 58.267z"/></g></g></svg>